<svg xmlns="http://www.w3.org/2000/svg"
shape-rendering="geometricPrecision"
width="4000" height="4000" viewBox="0 0 506 506">
  <metadata>null</metadata>

<path d="
M 79.955 45.621
C 80.406 42.476 80.147 39.147 80.271 35.971
C 80.353 33.87 80.459 31.655 81.931 30
C 83.526 28.207 85.611 27.97 87.818 27.463
C 92.93 26.288 98.136 25.744 103.312 24.922
C 111.308 23.651 119.536 23.185 127.624 23.158
C 142.63 23.108 158.155 24.697 171.981 30.919
C 177.779 33.529 183.274 36.915 188.169 40.974
C 189.762 42.295 191.35 43.736 192.813 45.2
C 193.299 45.686 193.851 46.723 194.418 47.003
C 220.442 35.582 250.709 31.831 278.708 36.76
C 286.725 38.171 294.59 40.225 302.314 42.781
C 304.361 43.458 306.432 44.198 308.417 45.04
C 309.902 45.67 311.473 46.68 313.073 46.923
C 315.278 45.417 317.158 42.923 319.251 41.187
C 323.24 37.878 327.789 34.963 332.459 32.706
C 352.816 22.87 375.373 21.898 397.534 24.081
C 404.208 24.738 410.851 25.699 417.444 26.938
C 419.902 27.4 423.673 27.518 425.588 29.278
C 427.95 31.447 427.616 34.713 427.688 37.634
C 427.853 44.399 428.071 51.176 427.916 57.944
C 427.396 80.55 424.991 104.765 412.257 124.163
C 408.341 130.13 403.288 134.927 398.008 139.612
C 398.037 143.975 399.492 148.725 400.098 153.071
C 401.133 160.5 401.769 168.028 402.113 175.516
C 403.512 205.953 395.859 239.58 376.812 263.933
C 369.458 273.335 361.244 281.768 351.617 288.866
C 323.078 309.906 285.147 314.688 250.659 314.362
C 223.402 314.104 194.613 310.136 170.21 297.296
C 154.606 289.085 140.997 277.306 130.398 263.24
C 116.907 245.338 109.316 223.126 106.626 201.04
C 105.865 194.79 105.269 188.31 105.464 181.999
C 105.776 171.958 106.564 161.986 107.975 152.036
C 108.564 147.879 109.977 143.676 110.323 139.523
C 101.278 133.679 94.638 123.786 90.153 114.226
C 83.052 99.09 80.702 82.041 80.106 65.473
C 79.87 58.889 79.54 52.215 79.955 45.621 Z
M 309.712 273.893
C 308.567 274.757 307.747 276.142 306.773 277.197
C 304.69 279.455 302.432 281.616 300.118 283.639
C 294.14 288.867 286.979 293.12 279.565 295.951
C 275.293 297.582 270.932 298.782 266.44 299.628
C 264.949 299.909 263.467 300.175 261.96 300.361
C 261.438 300.426 261.082 300.479 260.592 300.706
C 260.271 300.855 259.318 300.947 259.619 301.133
C 260.074 301.415 261.03 301.258 261.53 301.258
C 263.448 301.256 265.356 300.986 267.268 300.866
C 274.448 300.416 281.588 299.536 288.702 298.469
C 301.591 296.537 314.419 293.337 326.383 288.072
C 344.816 279.96 361.506 265.636 371.731 248.211
C 384.786 225.964 390.191 199.985 388.763 174.324
C 388.249 165.103 387.181 155.964 385.671 146.849
C 385.238 144.235 384.8 141.635 384.268 139.039
C 384.002 137.742 383.45 136.165 383.846 134.852
C 384.68 132.08 387.924 130.518 390.121 129.01
C 392.594 127.314 394.879 125.232 396.816 122.946
C 407.257 110.624 411.003 95.3 413.47 79.71
C 414.049 76.049 414.462 72.319 414.614 68.616
C 414.659 67.519 415.063 65.324 414.337 64.411
C 415.047 56.29 414.714 47.899 414.146 39.773
C 407.967 37.972 400.923 37.757 394.536 37.108
C 376.954 35.321 357.892 35.893 341.496 43.148
C 335.245 45.914 329.008 49.849 324.159 54.692
C 321.708 57.141 319.002 61.998 315.096 61.91
C 311.971 61.84 308.736 59.593 305.913 58.409
C 300.985 56.341 295.88 54.744 290.78 53.169
C 277.08 48.937 262.542 47.579 248.254 48.105
C 235.341 48.58 222.725 51.262 210.456 55.219
C 206.465 56.506 202.557 58.053 198.722 59.741
C 196.513 60.714 194.473 62.167 191.955 61.763
C 188.189 61.158 185.381 56.063 182.699 53.593
C 177.286 48.611 170.821 44.658 163.974 41.977
C 141.27 33.085 117.12 36.865 93.755 39.874
C 93.289 41.589 93.741 43.58 93.561 45.352
C 92.968 51.182 93.417 57.11 93.346 62.957
C 93.419 64.887 93.145 66.796 93.238 68.726
C 93.491 74.01 94.353 79.336 95.187 84.553
C 96.987 95.817 99.933 107.145 106.414 116.715
C 109.133 120.73 112.27 124.594 116.07 127.636
C 118.806 129.827 122.796 131.896 124.284 135.178
C 124.49 137.498 123.714 140.087 123.186 142.329
C 122.456 145.427 121.911 148.551 121.471 151.702
C 119.695 164.407 118.275 177.139 118.952 190.003
C 120.82 225.525 136.772 260.628 167.319 280.461
C 178.719 287.862 191.279 292.183 204.272 295.79
C 215.323 298.857 227.148 300.065 238.547 300.919
C 241.286 301.125 244.017 301.3 246.769 301.446
C 247.868 301.505 249.762 301.822 250.791 301.398
C 251.086 301.277 250.184 301.186 249.869 301.138
C 249.426 301.07 248.98 301.046 248.537 300.98
C 247.007 300.753 245.477 300.525 243.948 300.292
C 239.547 299.621 234.955 298.611 230.819 296.942
C 222.965 293.773 215.394 289.901 208.854 284.449
C 206.617 282.583 204.405 280.612 202.39 278.507
C 201.298 277.367 200.363 275.923 199.121 274.951
C 196.959 271.169 193.677 267.979 191.457 264.144
C 186.167 255.002 183.082 244.719 182.304 234.187
C 181.522 223.585 183.05 212.882 186.811 202.944
C 200.117 167.778 240.534 148.215 276.322 160.2
C 290.897 165.081 303.185 174.581 312.245 186.906
C 317.54 194.109 321.479 202.253 323.562 210.955
C 325.618 219.545 326.387 228.389 325.141 237.17
C 324.158 244.096 322.468 250.843 319.664 257.267
C 317.041 263.273 313.312 268.477 309.712 273.893 Z
M 189.968 222.101
C 188.975 229.659 189.806 237.909 191.719 245.253
C 198.978 273.118 226.286 294.486 255.319 293.693
C 270.943 293.266 285.432 286.73 296.981 276.473
C 302.754 271.346 307.587 264.746 310.948 257.795
C 315.845 247.669 318.752 236.475 318.094 225.168
C 317.624 217.103 315.852 209.083 312.489 201.719
C 301.982 178.715 277.779 163.336 252.466 164.053
C 244.296 164.285 236.086 166.162 228.58 169.388
C 220.872 172.7 213.669 177.559 207.791 183.576
C 200.427 191.519 194.782 200.977 191.945 211.471
C 190.992 214.995 190.661 218.542 189.968 222.101 Z"
opacity="1" fill="rgb(236,45,92)" fill-rule="evenodd" />
<path d="
M 93.346 62.957
C 93.799 63.918 93.584 65.013 93.757 66.038
C 94.203 68.682 94.503 71.373 95.194 73.97
C 97.855 83.967 100.386 93.735 105.174 102.984
C 107.99 108.421 111.437 113.554 115.39 118.227
C 117.215 120.384 119.513 122.215 121.015 124.632
C 122.523 127.057 123.128 129.813 123.871 132.522
C 124.059 133.205 124.82 133.892 124.88 134.537
C 125.338 139.462 124.342 144.726 124.318 149.795
C 124.262 161.352 124.687 172.95 126.152 184.419
C 130.362 217.365 146.656 249.414 176.472 265.972
C 183.289 269.758 191.311 273.888 199.121 274.951
C 200.363 275.923 201.298 277.367 202.39 278.507
C 204.405 280.612 206.617 282.583 208.854 284.449
C 215.394 289.901 222.965 293.773 230.819 296.942
C 234.955 298.611 239.547 299.621 243.948 300.292
C 245.477 300.525 247.007 300.753 248.537 300.98
C 248.98 301.046 249.426 301.07 249.869 301.138
C 250.184 301.186 251.086 301.277 250.791 301.398
C 249.762 301.822 247.868 301.505 246.769 301.446
C 244.017 301.3 241.286 301.125 238.547 300.919
C 227.148 300.065 215.323 298.857 204.272 295.79
C 191.279 292.183 178.719 287.862 167.319 280.461
C 136.772 260.628 120.82 225.525 118.952 190.003
C 118.275 177.139 119.695 164.407 121.471 151.702
C 121.911 148.551 122.456 145.427 123.186 142.329
C 123.714 140.087 124.49 137.498 124.284 135.178
C 122.796 131.896 118.806 129.827 116.07 127.636
C 112.27 124.594 109.133 120.73 106.414 116.715
C 99.933 107.145 96.987 95.817 95.187 84.553
C 94.353 79.336 93.491 74.01 93.238 68.726
C 93.145 66.796 93.419 64.887 93.346 62.957 Z"
opacity="1" fill="rgb(250,199,208)" fill-rule="evenodd" />
<path d="
M 99.857 416.96
C 104.164 417.089 108.5 417.183 112.808 417.059
C 113.291 420.589 112.898 424.441 112.915 428.008
C 112.937 432.989 113.297 438.145 112.807 443.102
C 115.893 443.4 119.371 442.876 122.506 442.886
C 130.311 442.911 138.127 443.012 145.929 442.949
C 146.43 434.451 146.388 425.591 145.98 417.086
C 150.345 416.619 154.869 417.134 159.257 417.055
C 159.908 422.214 159.358 427.798 159.353 433.003
C 159.343 443.169 159.337 453.336 159.356 463.502
C 159.364 467.835 159.341 472.167 159.34 476.5
C 159.34 477.778 159.887 480.52 159.374 481.636
C 156.373 481.842 153.325 481.337 150.31 481.498
C 149.179 481.558 146.897 482.056 145.922 481.561
C 146.289 472.765 146.418 463.601 146.036 454.811
C 138.369 454.973 130.671 454.803 122.999 454.804
C 120.162 454.805 115.793 454.018 113.142 455.035
C 112.675 459.892 112.931 464.881 112.921 469.766
C 112.913 473.612 112.573 477.912 113.242 481.705
C 108.791 481.402 104.25 481.352 99.801 481.677
C 99.337 475.369 99.806 468.839 99.782 462.508
C 99.723 447.42 99.824 432.327 99.675 417.242
C 99.736 417.148 99.796 417.054 99.857 416.96 Z"
opacity="1" fill="rgb(6,6,6)" fill-rule="evenodd" />
<path d="
M 172.377 76.463
C 172.881 75.184 170.909 73.038 170.097 72.09
C 166.888 68.348 162.869 65.523 158.71 62.932
C 149.627 57.275 140.386 53.149 130.159 50.089
C 127.317 49.238 124.459 48.333 121.497 47.931
C 116.426 47.243 111.257 46.847 106.13 46.872
C 104.799 46.878 103.461 46.919 102.132 46.952
C 101.637 46.965 100.769 47.334 100.36 46.996
C 100.353 46.624 100.11 46.206 100.293 45.882
C 100.662 45.225 103.921 45.468 104.618 45.457
C 109.101 45.388 113.558 45.539 118.031 45.829
C 133.895 46.86 150.593 51.843 163.616 61.129
C 167.649 64.005 176.521 70.507 172.377 76.463 Z"
opacity="0.996" fill="rgb(208,34,79)" fill-rule="evenodd" />
<path d="
M 100.36 46.996
C 100.769 47.334 101.637 46.965 102.132 46.952
C 103.461 46.919 104.799 46.878 106.13 46.872
C 111.257 46.847 116.426 47.243 121.497 47.931
C 124.459 48.333 127.317 49.238 130.159 50.089
C 140.386 53.149 149.627 57.275 158.71 62.932
C 162.869 65.523 166.888 68.348 170.097 72.09
C 170.909 73.038 172.881 75.184 172.377 76.463
C 170.899 79.167 167.804 81.127 165.496 83.071
C 164.516 83.897 163.753 84.921 162.79 85.76
C 163.512 85.009 161.136 82.793 160.629 82.074
C 157.869 78.163 154.296 75.097 150.534 72.197
C 140.794 64.687 129.027 60.304 117.149 57.565
C 112.034 56.385 106.084 54.952 100.801 55.488
C 100.124 52.812 100.709 49.734 100.36 46.996 Z"
opacity="1" fill="rgb(242,62,105)" fill-rule="evenodd" />
<path d="
M 100.801 55.488
C 106.084 54.952 112.034 56.385 117.149 57.565
C 129.027 60.304 140.794 64.687 150.534 72.197
C 154.296 75.097 157.869 78.163 160.629 82.074
C 161.136 82.793 163.512 85.009 162.79 85.76
C 160.652 88.205 157.966 90.301 155.723 92.689
C 150.852 97.878 146.327 103.276 142.029 108.948
C 139.238 112.632 136.911 117.574 131.921 118.478
C 124.33 119.852 120.198 111.314 116.939 105.953
C 107.681 90.719 102.027 73.316 100.801 55.488 Z"
opacity="1" fill="rgb(246,124,150)" fill-rule="evenodd" />
<path d="
M 172.957 466.616
C 173.171 464.82 173.528 463.064 174.249 461.396
C 178.502 451.557 191.821 452.987 200.538 453.068
C 202.277 453.084 204.128 453.303 205.851 453.112
C 206.084 452.707 205.82 451.354 205.794 450.871
C 205.624 447.709 203.755 445.047 200.824 443.861
C 196.129 441.963 189.199 442.721 184.663 444.746
C 183.116 445.436 181.721 446.714 180.207 447.33
C 178.363 444.658 177.181 440.89 175.751 437.938
C 177.957 436.47 180.247 435.253 182.748 434.357
C 194.091 430.297 212.963 430.467 217.706 444.127
C 219.2 448.432 218.908 453.156 218.896 457.642
C 218.874 465.532 218.408 473.619 219.005 481.486
C 214.842 481.682 210.477 480.925 206.354 481.611
C 206.471 479.593 206.752 477.569 206.709 475.545
C 205.401 476.564 204.458 478.044 203.139 479.091
C 201.397 480.473 199.294 481.364 197.171 481.979
C 186.453 485.085 172.02 479.536 172.957 466.616 Z
M 185.949 464.557
C 183.453 472.633 193.626 475.009 199.355 472.772
C 204.995 470.57 205.324 465.759 205.885 460.543
C 203.147 460.395 200.433 460.571 197.693 460.597
C 192.977 460.641 188.806 460.17 185.949 464.557 Z"
opacity="1" fill="rgb(4,4,4)" fill-rule="evenodd" />
<path d="
M 178.453 153.106
C 178.615 151.402 179.194 149.703 179.948 148.179
C 180.607 146.848 181.448 145.724 182.56 144.735
C 190.99 137.241 203.639 145.322 202.617 155.858
C 202.431 157.771 201.942 159.642 201.006 161.329
C 197.239 168.121 187.783 169.145 182.258 163.919
C 179.342 161.16 178.077 157.053 178.453 153.106 Z"
opacity="1" fill="rgb(235,39,88)" fill-rule="evenodd" />
<path d="
M 189.968 222.101
C 190.661 218.542 190.992 214.995 191.945 211.471
C 194.782 200.977 200.427 191.519 207.791 183.576
C 213.669 177.559 220.872 172.7 228.58 169.388
C 236.086 166.162 244.296 164.285 252.466 164.053
C 277.779 163.336 301.982 178.715 312.489 201.719
C 315.852 209.083 317.624 217.103 318.094 225.168
C 318.752 236.475 315.845 247.669 310.948 257.795
C 307.587 264.746 302.754 271.346 296.981 276.473
C 285.432 286.73 270.943 293.266 255.319 293.693
C 226.286 294.486 198.978 273.118 191.719 245.253
C 189.806 237.909 188.975 229.659 189.968 222.101 Z
M 196.929 222.613
C 195.904 235.036 198.608 247.651 204.912 258.434
C 218.748 282.098 249.849 292.626 275.103 282.102
C 280.971 279.656 286.425 276.59 291.151 272.294
C 296.478 267.452 301.069 261.881 304.378 255.461
C 308.346 247.761 310.503 239.616 311.062 230.983
C 311.539 223.609 310.314 215.876 307.903 208.917
C 305.825 202.922 302.505 197.128 298.389 192.299
C 293.668 186.76 287.933 181.857 281.527 178.357
C 259.727 166.443 233.266 170.349 214.841 186.623
C 209.844 191.037 205.879 196.67 202.807 202.546
C 199.643 208.597 197.491 215.794 196.929 222.613 Z"
opacity="1" fill="rgb(250,229,235)" fill-rule="evenodd" />
<path d="
M 196.929 222.613
C 197.491 215.794 199.643 208.597 202.807 202.546
C 205.879 196.67 209.844 191.037 214.841 186.623
C 233.266 170.349 259.727 166.443 281.527 178.357
C 287.933 181.857 293.668 186.76 298.389 192.299
C 302.505 197.128 305.825 202.922 307.903 208.917
C 310.314 215.876 311.539 223.609 311.062 230.983
C 310.503 239.616 308.346 247.761 304.378 255.461
C 301.069 261.881 296.478 267.452 291.151 272.294
C 286.425 276.59 280.971 279.656 275.103 282.102
C 249.849 292.626 218.748 282.098 204.912 258.434
C 198.608 247.651 195.904 235.036 196.929 222.613 Z
M 294.938 199.969
C 292.423 194.15 285.8 189.438 280.66 186.128
C 265.386 176.293 245.621 176.302 229.781 184.736
C 225.537 186.996 220.473 190.206 217.634 194.174
C 215.092 196.168 213.234 199.47 211.577 202.194
C 206.904 209.88 204.2 218.602 204.104 227.617
C 203.996 237.715 206.494 247.383 212.037 255.882
C 225.154 275.989 251.652 284.834 273.846 274.907
C 278.021 273.04 282.125 270.731 285.596 267.713
C 290.429 263.513 294.669 258.4 297.702 252.748
C 304.39 240.286 305.941 224.493 300.877 211.214
C 299.854 208.531 298.713 205.915 297.36 203.378
C 296.726 202.189 296.109 200.716 294.938 199.969 Z"
opacity="1" fill="rgb(229,42,90)" fill-rule="evenodd" />
<path d="
M 217.634 194.174
C 217.515 196.055 216.059 196.597 215.253 197.929
C 213.441 200.923 212.035 204.374 210.821 207.649
C 206.071 220.456 207.388 234.518 213.911 246.453
C 220.938 259.309 235.127 268.692 249.675 270.207
C 264.664 271.769 281.034 264.785 290.021 252.608
C 296.606 243.687 301.226 232.071 300.382 220.879
C 299.84 213.697 297.26 206.712 294.938 199.969
C 296.109 200.716 296.726 202.189 297.36 203.378
C 298.713 205.915 299.854 208.531 300.877 211.214
C 305.941 224.493 304.39 240.286 297.702 252.748
C 294.669 258.4 290.429 263.513 285.596 267.713
C 282.125 270.731 278.021 273.04 273.846 274.907
C 251.652 284.834 225.154 275.989 212.037 255.882
C 206.494 247.383 203.996 237.715 204.104 227.617
C 204.2 218.602 206.904 209.88 211.577 202.194
C 213.234 199.47 215.092 196.168 217.634 194.174 Z"
opacity="1" fill="rgb(250,200,208)" fill-rule="evenodd" />
<path d="
M 233.205 249.071
C 234.688 246.701 236.568 244.241 238.441 242.169
C 239.721 242.323 240.695 243.514 241.729 244.224
C 244.089 245.844 247.796 248.289 250.834 247.921
C 250.595 242.68 250.618 237.227 250.883 231.988
C 249.993 231.109 247.895 231.076 246.717 230.618
C 243.692 229.444 240.65 227.933 238.506 225.435
C 232.711 218.686 233.806 207.901 240.856 202.472
C 243.841 200.174 247.275 199.628 250.816 198.763
C 250.567 196.189 250.658 193.478 250.811 190.9
C 253.007 190.932 255.22 190.885 257.413 191.026
C 258.515 193.081 256.706 196.866 258.087 198.625
C 263.277 198.998 268.588 201.553 272.649 204.737
C 271.948 207.266 269.124 209.987 267.743 212.261
C 267.217 212.559 265.942 211.286 265.46 211.004
C 263.679 209.963 261.84 209.002 259.871 208.36
C 259.59 208.268 258.372 207.771 258.082 207.909
C 257.096 208.381 257.38 210.444 257.37 211.357
C 257.332 214.925 256.588 219.495 257.467 222.951
C 262.677 224.999 268.611 226.668 271.923 231.534
C 276.029 237.571 274.922 246.763 269.703 251.86
C 266.338 255.148 262.351 256.687 257.755 257.367
C 257.456 259.11 257.721 261.13 257.756 262.903
C 257.767 263.48 257.995 264.993 257.616 265.457
C 256.011 265.763 252.354 266.165 250.933 265.254
C 250.589 262.803 250.636 260.014 250.89 257.553
C 245.878 256.538 241.637 255.743 237.299 252.751
C 235.892 251.781 233.953 250.663 233.205 249.071 Z
M 245.422 213.078
C 244.933 216.644 247.058 220.108 250.749 220.827
C 250.361 216.733 250.195 211.797 250.612 207.713
C 247.849 208.356 246.12 210.443 245.422 213.078 Z
M 257.492 237.112
C 257.438 239.745 257.614 242.392 257.558 245.032
C 257.539 245.897 257.297 247.347 257.921 247.969
C 259.293 247.606 260.674 247.103 261.746 246.143
C 266.542 241.854 263.453 235.485 257.832 234.162
C 257.546 235.127 257.565 236.112 257.492 237.112 Z"
opacity="1" fill="rgb(228,41,91)" fill-rule="evenodd" />
<path d="
M 233.514 480.63
C 234.181 473.196 233.571 465.463 233.588 457.998
C 233.606 449.742 234.218 441.23 233.497 433.006
C 237.497 433.317 242.227 432.345 246.103 433.24
C 246.259 435.69 245.971 438.123 246.012 440.565
C 246.677 440.512 247.319 438.723 247.687 438.185
C 248.821 436.529 250.62 435.03 252.414 434.142
C 260.575 430.103 274.204 431.43 278.128 440.956
C 278.616 441.01 279.033 439.712 279.268 439.338
C 280.224 437.815 281.549 436.501 282.997 435.444
C 286.882 432.611 292.197 431.582 296.922 431.954
C 298.867 432.107 300.899 432.541 302.701 433.304
C 315.938 438.914 313.274 454.81 313.277 466.498
C 313.278 469.998 313.279 473.498 313.263 476.998
C 313.257 478.318 313.615 480.203 313.19 481.45
C 310.495 481.853 307.5 481.376 304.758 481.491
C 303.478 481.545 301.552 482.006 300.351 481.617
C 300.712 473.856 300.378 465.977 300.299 458.207
C 300.261 454.487 300.534 450.269 298.073 447.194
C 293.521 441.504 284.209 443.747 281.255 449.766
C 279.386 453.577 279.738 457.914 279.739 462.042
C 279.742 468.507 279.623 474.992 279.801 481.454
C 275.582 481.74 270.933 481.867 266.704 481.669
C 266.714 473.94 266.809 466.209 266.768 458.478
C 266.747 454.517 267.104 450.268 264.413 447.022
C 259.901 441.578 250.742 444.105 247.914 449.911
C 245.085 455.722 246.388 463.859 246.406 470.13
C 246.417 473.861 245.933 477.977 246.691 481.649
C 243.58 481.723 240.413 481.452 237.286 481.456
C 236.28 481.457 234.332 481.895 233.432 481.515
C 233.505 480.915 233.479 481.21 233.514 480.63 Z"
opacity="1" fill="rgb(4,5,5)" fill-rule="evenodd" />
<path d="
M 309.712 273.893
C 311.589 274.691 315.711 272.919 317.563 272.273
C 325.118 269.636 332.409 265.607 338.992 261.091
C 356.368 249.167 368.759 231.087 375.432 211.236
C 379.833 198.146 381.733 184.65 383.021 170.961
C 383.812 162.556 383.365 153.914 383.13 145.492
C 383.075 143.527 383.395 141.46 383.106 139.513
C 382.904 138.156 382.544 136.74 383.496 135.565
C 383.989 134.094 383.669 133.139 383.856 131.662
C 384.103 129.708 384.763 127.709 385.674 125.964
C 386.924 123.569 388.947 121.684 390.671 119.645
C 393.338 116.49 395.799 113.124 398.083 109.684
C 404.465 100.07 408.701 89.424 411.65 78.314
C 412.828 73.876 414.229 69.009 414.337 64.411
C 415.063 65.324 414.659 67.519 414.614 68.616
C 414.462 72.319 414.049 76.049 413.47 79.71
C 411.003 95.3 407.257 110.624 396.816 122.946
C 394.879 125.232 392.594 127.314 390.121 129.01
C 387.924 130.518 384.68 132.08 383.846 134.852
C 383.45 136.165 384.002 137.742 384.268 139.039
C 384.8 141.635 385.238 144.235 385.671 146.849
C 387.181 155.964 388.249 165.103 388.763 174.324
C 390.191 199.985 384.786 225.964 371.731 248.211
C 361.506 265.636 344.816 279.96 326.383 288.072
C 314.419 293.337 301.591 296.537 288.702 298.469
C 281.588 299.536 274.448 300.416 267.268 300.866
C 265.356 300.986 263.448 301.256 261.53 301.258
C 261.03 301.258 260.074 301.415 259.619 301.133
C 259.318 300.947 260.271 300.855 260.592 300.706
C 261.082 300.479 261.438 300.426 261.96 300.361
C 263.467 300.175 264.949 299.909 266.44 299.628
C 270.932 298.782 275.293 297.582 279.565 295.951
C 286.979 293.12 294.14 288.867 300.118 283.639
C 302.432 281.616 304.69 279.455 306.773 277.197
C 307.747 276.142 308.567 274.757 309.712 273.893 Z"
opacity="1" fill="rgb(250,198,206)" fill-rule="evenodd" />
<path d="
M 305.42 152.595
C 306.953 140.195 323.937 138 328.957 149.238
C 329.948 151.457 330.081 154.091 329.765 156.468
C 328.108 168.939 310.318 170.981 306.082 159.017
C 305.365 156.992 305.157 154.723 305.42 152.595 Z"
opacity="1" fill="rgb(236,42,91)" fill-rule="evenodd" />
<path d="
M 322.521 481.147
C 325.204 476.099 326.745 470.322 328.919 465.037
C 335.433 449.202 341.207 432.932 348.548 417.455
C 349.598 416.971 351.338 417.283 352.508 417.27
C 355.83 417.234 359.321 417.557 362.615 417.162
C 364.435 422.4 366.773 427.536 368.855 432.678
C 373.248 443.524 377.514 454.446 381.706 465.371
C 383.221 469.32 384.76 473.26 386.318 477.192
C 386.865 478.572 387.93 480.212 388.252 481.618
C 383.699 481.673 378.612 481.85 374.076 481.456
C 372.774 477.054 370.997 472.784 369.592 468.411
C 368.91 468.161 367.951 468.362 367.227 468.368
C 365.32 468.386 363.407 468.311 361.5 468.289
C 354.656 468.209 347.805 468.278 340.961 468.378
C 340.069 469.074 339.902 470.704 339.522 471.74
C 338.384 474.844 337.492 478.858 335.826 481.68
C 331.365 481.443 326.72 481.316 322.263 481.654
C 322.349 481.485 322.435 481.316 322.521 481.147 Z
M 344.794 457.771
C 345.893 458.426 349.172 457.846 350.505 457.838
C 355.39 457.808 360.651 457.355 365.494 457.867
C 363.182 451.407 360.711 444.965 358.436 438.479
C 357.406 435.544 356.549 432.49 355.302 429.654
C 351.382 438.784 349.327 448.909 344.794 457.771 Z"
opacity="1" fill="rgb(236,45,93)" fill-rule="evenodd" />
<path d="
M 407.205 53.005
C 406.665 51.156 406.984 49.284 405.905 47.527
C 405.107 46.876 403.079 47.352 402.031 47.33
C 398.651 47.261 395.39 47.371 392.03 47.61
C 376.623 48.704 361.363 55.453 348.196 63.2
C 345.024 65.066 342.247 67.38 339.423 69.713
C 338.176 70.743 336.664 71.785 336.321 73.479
C 335.822 75.94 337.14 77.647 338.446 79.557
C 337.549 78.902 336.67 78.111 336.028 77.198
C 330.938 69.954 339.397 63.727 344.913 60.18
C 358.743 51.288 375.658 46.403 392.015 45.315
C 395.843 45.06 399.678 45.068 403.511 45.134
C 404.314 45.148 406.866 44.903 407.372 45.487
C 407.469 47.977 407.263 50.512 407.205 53.005 Z"
opacity="1" fill="rgb(212,36,81)" fill-rule="evenodd" />
<path d="
M 407.205 53.005
C 407.205 53.99 407.163 54.989 407.241 55.969
C 406.822 55.484 404.093 55.903 403.403 55.924
C 399.046 56.056 394.752 56.759 390.496 57.638
C 376.785 60.469 362.724 66.633 352.4 76.235
C 350.536 77.969 348.638 79.834 347.12 81.885
C 346.294 83.003 345.778 84.537 344.879 85.537
C 342.828 83.495 340.355 81.709 338.446 79.557
C 337.14 77.647 335.822 75.94 336.321 73.479
C 336.664 71.785 338.176 70.743 339.423 69.713
C 342.247 67.38 345.024 65.066 348.196 63.2
C 361.363 55.453 376.623 48.704 392.03 47.61
C 395.39 47.371 398.651 47.261 402.031 47.33
C 403.079 47.352 405.107 46.876 405.905 47.527
C 406.984 49.284 406.665 51.156 407.205 53.005 Z"
opacity="1" fill="rgb(241,54,101)" fill-rule="evenodd" />
<path d="
M 344.879 85.537
C 345.778 84.537 346.294 83.003 347.12 81.885
C 348.638 79.834 350.536 77.969 352.4 76.235
C 362.724 66.633 376.785 60.469 390.496 57.638
C 394.752 56.759 399.046 56.056 403.403 55.924
C 404.093 55.903 406.822 55.484 407.241 55.969
C 407.13 60.399 405.897 65.22 404.971 69.55
C 402.221 82.398 397.346 94.822 390.394 105.985
C 387.005 111.426 382.458 120.255 374.636 118.177
C 370.162 116.988 367.071 111.021 364.476 107.551
C 358.581 99.669 351.767 92.54 344.879 85.537 Z"
opacity="1" fill="rgb(246,123,150)" fill-rule="evenodd" />
<path d="
M 397.222 417.683
C 400.019 417.554 402.808 417.583 405.607 417.569
C 407.089 417.562 408.727 417.268 410.178 417.597
C 409.959 433.501 410.198 449.429 410.089 465.34
C 410.052 470.64 410.428 476.107 410.114 481.371
C 406.073 481.043 401.4 480.948 397.381 481.482
C 396.746 476.328 397.382 470.698 397.378 465.498
C 397.371 455.332 397.3 445.167 397.307 435.001
C 397.311 429.258 397.663 423.411 397.222 417.683 Z"
opacity="1" fill="rgb(235,48,97)" fill-rule="evenodd" />

</svg>